PathFileType	4	(X/Y/Z)	./resultDataOpenSim/trcMotMarkerGrf/sub06/qtm-14-07.trc
DataRate	CameraRate	NumFrames	NumMarkers	Units	OrigDataRate	OrigDataStartFrame	OrigNumFrames
250.000000	250.000000	7	24	m	250.000000	198	527
Frame#	Time	L.Toe.Tip			R.Toe.Tip			L.Ankle.Lat			R.Ankle.Lat			L.Ankle.Med			R.Ankle.Med			L.Heel			R.Heel			L.Knee.Lat			R.Knee.Lat			L.Knee.Med			R.Knee.Med			L.Thigh.Upper			R.Thigh.Upper			L.ASIS			R.ASIS			V.Sacral			L.Acromium			R.Acromium			C7			L.Elbow			R.Elbow			L.Wrist.Lat			R.Wrist.Lat
		X1	Y1	Z1	X2	Y2	Z2	X3	Y3	Z3	X4	Y4	Z4	X5	Y5	Z5	X6	Y6	Z6	X7	Y7	Z7	X8	Y8	Z8	X9	Y9	Z9	X10	Y10	Z10	X11	Y11	Z11	X12	Y12	Z12	X13	Y13	Z13	X14	Y14	Z14	X15	Y15	Z15	X16	Y16	Z16	X17	Y17	Z17	X18	Y18	Z18	X19	Y19	Z19	X20	Y20	Z20	X21	Y21	Z21	X22	Y22	Z22	X23	Y23	Z23	X24	Y24	Z24

198	0.788	0.1086072	-0.040149739	0.0046507446	-0.59077428	0.083511971	0.12589845	-0.010829903	-0.006988563	-0.035764512	-0.5904312	0.2243703	0.13904448	-0.024336316	0.0075386388	0.049529996	-0.54156296	0.20118948	0.06531383	-0.091042749	-0.034430796	-0.0046814935	-0.60149399	0.26269476	0.067958456	0.049933439	0.3711174	-0.048963076	-0.23410101	0.34142722	0.22147298	0.010468769	0.3698193	0.064616981	-0.21760976	0.31511524	0.090036404	-0.093596559	0.72501054	-0.13491038	-0.19989503	0.69554704	0.19499523	-0.035441976	0.76326932	-0.068267642	-0.09200477	0.74974084	0.16603004	-0.2455953	0.840513	0.019338847	-0.11321478	1.2281474	-0.17087963	-0.15578713	1.2408206	0.19147468	-0.20148543	1.2750059	-0.0024611251	-0.23290664	0.94343931	-0.20909908	-0.23555476	0.93147416	0.28066465	-0.1914826	0.70829799	-0.25715005	-0.034046628	0.78728522	0.30659936
199	0.792	0.10851483	-0.040209416	0.0045143042	-0.57523915	0.086127373	0.12706714	-0.010828897	-0.0072383732	-0.035985489	-0.57528862	0.22686755	0.13905235	-0.024086436	0.0075689135	0.049435641	-0.52677331	0.20363959	0.065393462	-0.091100025	-0.03436046	-0.0046473058	-0.58693948	0.26509327	0.068155236	0.053039036	0.36993749	-0.050430378	-0.21948213	0.3407527	0.22293718	0.01792353	0.36847265	0.063688057	-0.20388576	0.3156679	0.090957265	-0.08758883	0.72546876	-0.13550804	-0.19336012	0.69652537	0.19423671	-0.029260464	0.76373902	-0.069539295	-0.084967173	0.74984232	0.16506187	-0.23919022	0.84092586	0.019382616	-0.10527215	1.2287391	-0.170694	-0.14767635	1.2414271	0.1913189	-0.19367962	1.275981	-0.0022568245	-0.22304871	0.9434196	-0.20984835	-0.23027902	0.93233271	0.27901333	-0.18054055	0.7084252	-0.25745154	-0.031251131	0.78552129	0.30703175
200	0.796	0.10849967	-0.040203715	0.0043278397	-0.55939982	0.088472876	0.12810364	-0.010767702	-0.007461655	-0.036172178	-0.55996072	0.22910671	0.13921077	-0.02383341	0.0076011282	0.0493431	-0.51169514	0.20589294	0.065429732	-0.091126552	-0.034258652	-0.0046318904	-0.5723148	0.26727109	0.068532464	0.055895641	0.36848519	-0.051826819	-0.20475592	0.34033796	0.22429974	0.024711546	0.36683679	0.062806681	-0.19005209	0.31623714	0.091839941	-0.081313187	0.72634405	-0.13613706	-0.1866929	0.69754581	0.19355034	-0.023176182	0.76436958	-0.070787808	-0.078059662	0.75026756	0.16421065	-0.2328629	0.84168268	0.018765951	-0.097398389	1.2295179	-0.17043416	-0.13968171	1.2421485	0.19113428	-0.1860744	1.2769493	-0.0020238665	-0.21320543	0.94363	-0.21049311	-0.2247793	0.93339413	0.27701233	-0.16930987	0.70879932	-0.25767238	-0.028501789	0.78387323	0.30741311
201	0.8	0.10853377	-0.040159461	0.0041200076	-0.54333139	0.090524675	0.12900747	-0.01066904	-0.0076684466	-0.036352709	-0.54430358	0.23116748	0.13956387	-0.02362151	0.007632023	0.049244564	-0.49640084	0.20795316	0.065491616	-0.091138205	-0.034137648	-0.0046564435	-0.55766678	0.26920152	0.069047191	0.058478549	0.36674954	-0.053098761	-0.18996544	0.34019086	0.22554623	0.030603488	0.36496655	0.06206774	-0.1760525	0.31680976	0.092697309	-0.07483413	0.72748349	-0.13671998	-0.17988807	0.69862581	0.19294654	-0.017111708	0.76517787	-0.071963473	-0.071329581	0.75105388	0.16350964	-0.22654584	0.84268327	0.017601819	-0.089592559	1.2304653	-0.17011636	-0.13187458	1.2429877	0.1909581	-0.17866926	1.2779203	-0.0017983815	-0.20340503	0.94400678	-0.2110446	-0.21914255	0.93466095	0.27475041	-0.1578739	0.7093751	-0.25783164	-0.025834053	0.78235821	0.30774519
202	0.804	0.10856704	-0.040140303	0.0039589449	-0.52708203	0.092285717	0.12979498	-0.010566508	-0.0078741578	-0.036564658	-0.52824012	0.23310552	0.14014014	-0.023483339	0.0076565019	0.049143271	-0.48097611	0.20982391	0.065696318	-0.091144704	-0.034005593	-0.0047214356	-0.5429767	0.27087439	0.069672082	0.060824569	0.36476888	-0.054166204	-0.17513224	0.34031208	0.22666695	0.035439988	0.36301068	0.061598263	-0.16189558	0.31734575	0.093552697	-0.06817994	0.72873621	-0.13716201	-0.17296996	0.69981475	0.19241962	-0.011016853	0.76612133	-0.07301965	-0.064804715	0.75222636	0.16300559	-0.22009436	0.84380842	0.016192827	-0.081850808	1.2315588	-0.16972798	-0.12431692	1.2439587	0.19081612	-0.17145739	1.2789077	-0.0016054168	-0.19362522	0.9444805	-0.21158573	-0.21351225	0.93614897	0.27241792	-0.14629733	0.71011378	-0.25794958	-0.023290379	0.78098408	0.30803619
203	0.808	0.10858876	-0.040167781	0.0038760516	-0.51063854	0.093781143	0.13049712	-0.010476449	-0.0080775056	-0.03681883	-0.51193418	0.23486064	0.14087003	-0.023431214	0.0076723335	0.049053115	-0.46546585	0.21150302	0.066077063	-0.091143892	-0.033858144	-0.0048077206	-0.52820043	0.27229229	0.07039063	0.063080358	0.36263067	-0.05491803	-0.160268	0.34069373	0.22766299	0.039192604	0.36116865	0.061471854	-0.14765779	0.31786286	0.094382818	-0.061375855	0.72996662	-0.13738714	-0.16597848	0.70113049	0.19197599	-0.004886129	0.76713371	-0.073933599	-0.05842679	0.75378444	0.16275558	-0.21347566	0.84495371	0.014931012	-0.074151844	1.2327697	-0.16927078	-0.11703206	1.2450632	0.1907185	-0.16442381	1.2799255	-0.001456466	-0.18381615	0.94501269	-0.21223077	-0.2080344	0.93786944	0.27023784	-0.13459818	0.71099474	-0.25804313	-0.020877215	0.77974897	0.30830149
204	0.812	0.10861413	-0.040213159	0.0038544891	-0.49392725	0.095038578	0.13114533	-0.01038114	-0.0082537329	-0.037069368	-0.49571556	0.23628126	0.14160142	-0.023470197	0.0076732678	0.048995901	-0.44986333	0.21298453	0.066570207	-0.091130946	-0.033687264	-0.0048855663	-0.51331747	0.27346285	0.071193095	0.065456715	0.36047309	-0.055255917	-0.1453918	0.34132417	0.22853891	0.041918917	0.3596	0.061651256	-0.13336477	0.31848389	0.09512027	-0.054445898	0.73105204	-0.1374073	-0.15897074	0.70253981	0.19163119	0.0012970973	0.76818479	-0.074692392	-0.052034956	0.75568947	0.16277581	-0.20687416	0.84609613	0.014068007	-0.066483792	1.2340875	-0.16879031	-0.11000697	1.2462871	0.19066423	-0.15754748	1.2809854	-0.0013523294	-0.17401539	0.94562465	-0.21293925	-0.20273226	0.93979901	0.26827864	-0.12277565	0.71201596	-0.25812271	-0.018581886	0.77865034	0.30855824
